<svg width="20" height="19" viewBox="0 0 20 19" fill="none" xmlns="http://www.w3.org/2000/svg">
<path d="M1.9641 14.9151L0.879245 15.951L2.95105 18.1208L4.0359 17.0849L1.9641 14.9151ZM19.1612 2.03462C19.1803 1.20641 18.5244 0.519521 17.6962 0.500405L4.19978 0.188878C3.37157 0.169761 2.68468 0.825658 2.66556 1.65386C2.64644 2.48207 3.30234 3.16896 4.13055 3.18808L16.1274 3.46499L15.8504 15.4618C15.8313 16.29 16.4872 16.9769 17.3154 16.996C18.1436 17.0151 18.8305 16.3592 18.8496 15.531L19.1612 2.03462ZM4.0359 17.0849L18.6975 3.08486L16.6257 0.915151L1.9641 14.9151L4.0359 17.0849Z" fill="#1F1F1F"/>
</svg>
